<svg xmlns="http://www.w3.org/2000/svg" width="160" height="38" viewBox="0 0 160 38">
    <g fill="none" fill-rule="evenodd">
        <g>
            <g>
                <g>
                    <g fill-rule="nonzero">
                        <path fill="#F7552F" d="M86.652 5.338c-1.079-2.08-3.236-4.433-7.82-4.433-2.967 0-5.034 1.266-6.293 2.533V1.72c0-.18-.18-.271-.27-.271h-4.044c-.18 0-.27.18-.27.271V36.1c0 .181.18.271.27.271h4.404c.18 0 .27-.18.27-.271V24.429c1.348 1.176 3.236 2.261 6.022 2.261 4.585 0 6.742-2.352 7.82-4.433 1.08-2.171 1.17-4.433 1.17-4.886v-6.966c-.09-.543-.18-2.895-1.26-5.067zm-3.955 12.214c0 1.086-.72 4.705-4.944 4.705-4.315 0-4.944-3.71-4.944-4.705v-7.419c0-1.085.72-4.704 4.944-4.704 4.314 0 4.944 3.71 4.944 4.704v7.42z" transform="translate(-152 -84) translate(0 40) translate(152 44)"/>
                        <path fill="#935227" d="M20.494 10.314c0-.452.09-2.714 1.259-4.885C22.92 3.348 25.438.995 30.472.995c5.034 0 7.55 2.353 8.719 4.434 1.258 2.171 1.258 4.433 1.258 4.885v6.967c0 .452-.09 2.714-1.258 4.886-1.169 2.08-3.595 4.433-8.72 4.433-5.033 0-7.55-2.352-8.718-4.433-1.259-2.172-1.259-4.434-1.259-4.886v-6.967zm5.034 7.148c0 1.086.72 4.705 4.944 4.705 4.315 0 5.034-3.71 5.034-4.705v-7.42c0-1.085-.72-4.704-5.034-4.704-4.315 0-4.944 3.71-4.944 4.705v7.419zM63.91 1.719c0-.18-.09-.271-.27-.271h-4.404c-.18 0-.27.18-.27.271v15.743c0 1.086-.719 4.705-4.944 4.705-4.314 0-5.033-3.71-5.033-4.705V1.719c0-.18-.18-.271-.27-.271h-4.404c-.18 0-.27.18-.27.271v15.562c0 .452 0 2.714 1.168 4.886 1.08 2.08 3.236 4.433 7.82 4.433 1.529 0 2.787-.271 3.776-.814.989-.453 1.888-1.086 2.517-1.72v1.72c0 .18.18.271.27.271h4.044c.18 0 .27-.18.27-.271V1.719z" transform="translate(-152 -84) translate(0 40) translate(152 44)"/>
                        <path fill="#FFC400" d="M109.753 10.043c0-1.99-.989-6.605-5.393-8.414-4.315-1.81-9.978.18-11.776.904l-.36.181c-.18.09-.269.272-.18.453l1.26 3.619c.09.18.18.271.359.18.09 0 .09-.09.18-.09 1.708-.905 6.112-2.352 8.809-1.086 2.696 1.267 2.427 4.072 2.427 4.434v.724c-1.259-.905-3.057-1.81-5.663-1.9-4.585 0-6.742 2.262-7.82 4.162-1.08 2.08-1.169 4.252-1.169 4.614 0 .452.09 2.624 1.169 4.614 1.078 1.99 3.235 4.162 7.82 4.162 2.696 0 4.494-.995 5.842-1.99v1.176c0 .18.18.271.27.271h3.865c.18 0 .27-.18.27-.271V10.133c.09 0 .09 0 .09-.09zm-4.674 7.871c0 .996-.72 4.434-4.854 4.434-4.135 0-4.854-3.438-4.854-4.434v-.362c0-.995.719-4.433 4.854-4.433s4.854 3.438 4.854 4.433v.362z" transform="translate(-152 -84) translate(0 40) translate(152 44)"/>
                        <path fill="#31B4DD" d="M159.46 1.086c-2.606-.09-4.224.995-5.303 2.171-1.438-1.267-3.685-2.262-7.1-2.262-5.035 0-7.551 2.262-8.72 4.253-1.258 2.08-1.258 4.252-1.258 4.704v.272c0 .452.09 2.624 1.258 4.705.54.904 1.348 1.81 2.517 2.623-1.888 1.086-3.596 3.077-3.596 6.605v1.9c0 .181.18.362.27.362H152c1.708 0 2.607 1.176 2.876 2.262.27 1.357-.18 3.167-2.516 4.433l-.18.09c-.18.091-.18.272-.09.453l1.977 3.529c.09.18.27.18.45.09 0 0 .989-.633 1.348-.814.36-.181.63-.452.899-.724 2.517-2.352 2.966-5.519 2.427-8.052-.72-3.438-3.595-5.429-7.191-5.429h-9.978c.54-3.076 4.045-2.986 4.495-2.986h.54c5.033 0 7.55-2.261 8.718-4.252 1.259-2.08 1.259-4.252 1.259-4.705v-.452c0-.362 0-1.99-.81-3.71.63-.452 1.709-.904 3.237-.814.18 0 .36-.18.36-.271V1.538c0-.271-.18-.452-.36-.452zM152 10.133c0 .996-.72 4.434-4.944 4.524-4.314 0-4.944-3.528-4.944-4.524v-.271c0-.995.72-4.433 4.944-4.524 4.315 0 4.944 3.529 4.944 4.524v.271z" transform="translate(-152 -84) translate(0 40) translate(152 44)"/>
                        <path fill="#935227" d="M18.876 21.352l-3.865-1.99c-.18-.09-.36 0-.45.18v.091c-.628 1.267-1.887 2.624-4.494 2.715-4.314 0-4.943-3.71-4.943-4.705v-7.42c0-1.085.719-4.704 4.943-4.704 2.607 0 3.955 1.448 4.495 2.714.09.09.18.272.36.272h.18l3.774-1.99c.18-.091.18-.272.09-.453s-.18-.272-.18-.452c-1.168-2.081-3.595-4.434-8.719-4.434-5.033 0-7.55 2.353-8.719 4.434C.09 7.51 0 9.862 0 10.314v6.967c0 .452.09 2.714 1.258 4.886 1.169 2.08 3.596 4.433 8.72 4.433h.09c5.033 0 7.55-2.352 8.719-4.433l.27-.453c0-.09-.09-.271-.18-.362z" transform="translate(-152 -84) translate(0 40) translate(152 44)"/>
                        <path fill="#88CC2F" d="M132.494 5.338c-1.078-2.08-3.325-4.433-7.82-4.433-2.966 0-4.944 1.266-6.292 2.533V1.72c0-.18-.18-.271-.27-.271h-4.045c-.18 0-.27.18-.27.271v24.157c0 .181.18.272.27.272h4.405c.18 0 .27-.181.27-.272V9.862c.09-1.267.988-4.433 4.943-4.524 4.315 0 5.034 3.71 5.034 4.705v15.833c0 .181.18.272.27.272h4.404c.18 0 .27-.181.27-.272V10.314c0-.452 0-2.804-1.169-4.976z" transform="translate(-152 -84) translate(0 40) translate(152 44)"/>
                    </g>
                    <path d="M0 0H160V38H0z" transform="translate(-152 -84) translate(0 40) translate(152 44)"/>
                </g>
            </g>
        </g>
    </g>
</svg>
